<svg xmlns="http://www.w3.org/2000/svg" display = 'none'>
    <symbol id="play_btn" viewBox="0 0 80 80">
        <g>
            <path d="M51.5 39.134C52.1667 39.5189 52.1667 40.4811 51.5 40.866L35 50.3923C34.3333 50.7772 33.5 50.2961 33.5 49.5263L33.5 30.4737C33.5 29.7039 34.3333 29.2228 35 29.6077L51.5 39.134Z"/>
        </g>
    </symbol>

    <symbol id="mute_btn" viewBox="0 0 40 40">
        <g>
            <path fill-rule="evenodd" clip-rule="evenodd" d="M22.0003 25.5827C22.5837 25.9994 23.3337 25.666 23.3337 24.916V21.166L20.2503 24.2493L22.0003 25.5827Z"/>
            <path fill-rule="evenodd" clip-rule="evenodd" d="M27.2503 14.416C26.917 14.0827 26.417 14.0827 26.0837 14.416L23.3337 17.166V15.0827C23.3337 14.416 22.5003 13.9993 22.0003 14.416L19.667 16.3327C19.3337 16.4993 19.0003 16.666 18.5837 16.666H16.667C15.7503 16.666 15.0003 17.416 15.0003 18.3327V21.666C15.0003 22.5827 15.7503 23.3327 16.667 23.3327H17.167L14.417 26.0827C14.0837 26.416 14.0837 26.916 14.417 27.2494C14.7503 27.5827 15.2503 27.5827 15.5837 27.2494L27.2503 15.5827C27.5837 15.2493 27.5837 14.7493 27.2503 14.416Z"/>
        </g>
    </symbol>
</svg>