<svg width="24" height="25" viewBox="0 0 24 25" fill="none" xmlns="http://www.w3.org/2000/svg">
<path fill-rule="evenodd" clip-rule="evenodd" d="M2.09961 2.32617C2.65189 2.32617 3.09961 2.77389 3.09961 3.32617V7.76249C4.75764 4.53545 8.11959 2.32617 11.9996 2.32617C16.3552 2.32617 20.058 5.1103 21.4303 8.99293C21.6144 9.51364 21.3414 10.085 20.8207 10.269C20.3 10.4531 19.7287 10.1801 19.5446 9.65942C18.4459 6.55089 15.4813 4.32617 11.9996 4.32617C9.03957 4.32617 6.45326 5.93416 5.06955 8.32617H8.09957C8.65186 8.32617 9.09957 8.77389 9.09957 9.32617C9.09957 9.87846 8.65186 10.3262 8.09957 10.3262H2.09961C1.54732 10.3262 1.09961 9.87846 1.09961 9.32617V3.32617C1.09961 2.77389 1.54732 2.32617 2.09961 2.32617Z" fill="#424551"/>
<path fill-rule="evenodd" clip-rule="evenodd" d="M3.17664 14.3833C3.69736 14.1993 4.26868 14.4722 4.45273 14.9929C5.55144 18.1015 8.51608 20.3262 11.9978 20.3262C14.9578 20.3262 17.5441 18.7182 18.9278 16.3262H15.8978C15.3455 16.3262 14.8978 15.8785 14.8978 15.3262C14.8978 14.7739 15.3455 14.3262 15.8978 14.3262H21.8977C22.45 14.3262 22.8977 14.7739 22.8977 15.3262V21.3262C22.8977 21.8785 22.45 22.3262 21.8977 22.3262C21.3455 22.3262 20.8977 21.8785 20.8977 21.3262V16.8899C19.2397 20.1169 15.8778 22.3262 11.9978 22.3262C7.64215 22.3262 3.93936 19.542 2.56705 15.6594C2.383 15.1387 2.65593 14.5674 3.17664 14.3833Z" fill="#424551"/>
</svg>
