<svg width="156" height="156" viewBox="0 0 156 156" fill="none" xmlns="http://www.w3.org/2000/svg">
<g clip-path="url(#clip0_2111_1795)" filter="url(#filter0_d_2111_1795)">
<circle opacity="0.3" cx="78" cy="74" r="71" stroke="#F89828" stroke-width="6"/>
<path d="M78 142C115.555 142 146 111.555 146 74C146 36.4446 115.555 6 78 6V0C118.869 0 152 33.1309 152 74C152 114.869 118.869 148 78 148C37.1309 148 4 114.869 4 74C4 51.3485 14.1774 31.0741 30.209 17.5L34 22.1523C19.3167 34.6254 10 53.2247 10 74C10 111.555 40.4446 142 78 142Z" fill="#F89828"/>
</g>
<defs>
<filter id="filter0_d_2111_1795" x="0" y="0" width="156" height="156" filterUnits="userSpaceOnUse" color-interpolation-filters="sRGB">
<feFlood flood-opacity="0" result="BackgroundImageFix"/>
<feColorMatrix in="SourceAlpha" type="matrix" values="0 0 0 0 0 0 0 0 0 0 0 0 0 0 0 0 0 0 127 0" result="hardAlpha"/>
<feOffset dy="4"/>
<feGaussianBlur stdDeviation="2"/>
<feComposite in2="hardAlpha" operator="out"/>
<feColorMatrix type="matrix" values="0 0 0 0 0 0 0 0 0 0 0 0 0 0 0 0 0 0 0.25 0"/>
<feBlend mode="normal" in2="BackgroundImageFix" result="effect1_dropShadow_2111_1795"/>
<feBlend mode="normal" in="SourceGraphic" in2="effect1_dropShadow_2111_1795" result="shape"/>
</filter>
<clipPath id="clip0_2111_1795">
<rect width="148" height="148" fill="white" transform="translate(4)"/>
</clipPath>
</defs>
</svg>
