<svg xmlns="http://www.w3.org/2000/svg" display='none'>
  <symbol id="play_btn" viewBox="0 0 80 80">
    <g>
      <path d="M51.5 39.134C52.1667 39.5189 52.1667 40.4811 51.5 40.866L35 50.3923C34.3333 50.7772 33.5 50.2961 33.5 49.5263L33.5 30.4737C33.5 29.7039 34.3333 29.2228 35 29.6077L51.5 39.134Z"/>
    </g>
  </symbol>

  <symbol id="mute_btn" viewBox="0 0 40 40">
    <g>
      <path fill-rule="evenodd" clip-rule="evenodd" d="M22.0003 25.5827C22.5837 25.9994 23.3337 25.666 23.3337 24.916V21.166L20.2503 24.2493L22.0003 25.5827Z"/>
      <path fill-rule="evenodd" clip-rule="evenodd" d="M27.2503 14.416C26.917 14.0827 26.417 14.0827 26.0837 14.416L23.3337 17.166V15.0827C23.3337 14.416 22.5003 13.9993 22.0003 14.416L19.667 16.3327C19.3337 16.4993 19.0003 16.666 18.5837 16.666H16.667C15.7503 16.666 15.0003 17.416 15.0003 18.3327V21.666C15.0003 22.5827 15.7503 23.3327 16.667 23.3327H17.167L14.417 26.0827C14.0837 26.416 14.0837 26.916 14.417 27.2494C14.7503 27.5827 15.2503 27.5827 15.5837 27.2494L27.2503 15.5827C27.5837 15.2493 27.5837 14.7493 27.2503 14.416Z"/>
    </g>
  </symbol>

  <symbol id="ic-construction-icon" viewBox="0 0 48 48">
    <g>
      <path d="M46.5938 25.4062C47.3704 25.4062 48 24.7766 48 24V13.5C48 12.7234 47.3704 12.0938 46.5938 12.0938C45.6135 12.0938 26.4628 12.0938 25.4062 12.0938V3C25.4062 2.22337 24.7766 1.59375 24 1.59375H9C8.22338 1.59375 7.59375 2.22337 7.59375 3V12.0938H1.40625C0.629625 12.0938 0 12.7234 0 13.5V24C0 24.7766 0.629625 25.4062 1.40625 25.4062H7.59375V33.0938H1.40625C0.629625 33.0938 0 33.7234 0 34.5V45C0 45.7766 0.629625 46.4062 1.40625 46.4062H46.5938C47.3704 46.4062 48 45.7766 48 45V34.5C48 33.7234 47.3704 33.0938 46.5938 33.0938H40.4062V25.4062H46.5938ZM45.1875 22.5938C43.683 22.5938 34.3936 22.5938 32.9062 22.5938V14.9062H45.1875V22.5938ZM30.0938 22.5938C28.6208 22.5938 19.3889 22.5938 17.9062 22.5938V14.9062H30.0938V22.5938ZM10.4062 4.40625H22.5938V12.0938C21.1208 12.0938 11.8889 12.0938 10.4062 12.0938V4.40625ZM2.8125 22.5938V14.9062H15.0938V22.5938C13.6058 22.5938 4.31672 22.5938 2.8125 22.5938ZM10.4062 25.4062H22.5938V33.0938C21.1208 33.0938 11.8889 33.0938 10.4062 33.0938V25.4062ZM2.8125 35.9062H15.0938V43.5938H2.8125V35.9062ZM17.9062 35.9062H30.0938V43.5938H17.9062V35.9062ZM45.1875 35.9062V43.5938H32.9062V35.9062H45.1875ZM37.5938 33.0938C36.1208 33.0938 26.8889 33.0938 25.4062 33.0938V25.4062H37.5938V33.0938Z"/>

    </g>
  </symbol>

  <symbol id="ic-plan-icon" viewBox="0 0 48 48">
    <g>
      <path d="M39.5625 4.21875C39.5625 1.89258 37.6699 0 35.3438 0H7.21875C4.89258 0 3 1.89258 3 4.21875V12.6562C3 14.9824 4.89258 16.875 7.21875 16.875H35.3438C37.6699 16.875 39.5625 14.9824 39.5625 12.6562V11.25H40.9688C41.744 11.25 42.375 11.881 42.375 12.6562V18.2812C42.375 19.0565 41.744 19.6875 40.9688 19.6875H24.0938C21.7676 19.6875 19.875 21.5801 19.875 23.9062V28.125H18.4688C17.692 28.125 17.0625 28.7545 17.0625 29.5312V35.0797L15.6562 40.7955C14.7418 44.4529 17.5052 48 21.2812 48C25.0591 48 27.8196 44.4492 26.9077 40.8007L25.5 35.0797V29.5312C25.5 28.7545 24.8705 28.125 24.0938 28.125H22.6875V23.9062C22.6875 23.131 23.3185 22.5 24.0938 22.5H40.9688C43.2949 22.5 45.1875 20.6074 45.1875 18.2812V12.6562C45.1875 10.3301 43.2949 8.4375 40.9688 8.4375H39.5625V4.21875ZM22.6875 30.9375V33.8438H19.875V30.9375H22.6875ZM21.2812 45.1875C19.344 45.1875 17.9117 43.3693 18.386 41.4727L19.571 36.6562H22.9915L24.1776 41.4778C24.6486 43.3612 23.2255 45.1875 21.2812 45.1875ZM7.21875 2.8125H35.3438C36.119 2.8125 36.75 3.44348 36.75 4.21875V5.625H32.5312C31.1646 5.625 29.417 6.13696 27.3933 6.72949C24.6599 7.53003 21.5621 8.4375 18.4688 8.4375C15.4534 8.4375 13.3275 7.55676 11.4518 6.78003C10.0177 6.18604 8.66345 5.625 7.21875 5.625H5.8125V4.21875C5.8125 3.44348 6.44348 2.8125 7.21875 2.8125ZM36.75 12.6562C36.75 13.4315 36.119 14.0625 35.3438 14.0625H7.21875C6.44348 14.0625 5.8125 13.4315 5.8125 12.6562V8.4375H7.21875C8.10388 8.4375 9.10657 8.85278 10.3755 9.3783C12.3885 10.2122 14.8938 11.25 18.4688 11.25C21.9657 11.25 25.4132 10.24 28.184 9.42883C29.9242 8.91907 31.5681 8.4375 32.5312 8.4375H36.75V12.6562Z"/>

    </g>
  </symbol>

  <symbol id="ic-pantone-icon" viewBox="0 0 48 48">
    <g>
      <path d="M9.9375 33.8438C7.61128 33.8438 5.71875 35.7363 5.71875 38.0625C5.71875 40.3887 7.61128 42.2812 9.9375 42.2812C12.2637 42.2812 14.1562 40.3887 14.1562 38.0625C14.1562 35.7363 12.2637 33.8438 9.9375 33.8438ZM9.9375 39.4688C9.16209 39.4688 8.53125 38.8379 8.53125 38.0625C8.53125 37.2871 9.16209 36.6562 9.9375 36.6562C10.7129 36.6562 11.3438 37.2871 11.3438 38.0625C11.3438 38.8379 10.7129 39.4688 9.9375 39.4688Z"/>
      <path d="M45.4619 28.569C46.4212 27.2708 46.598 25.4603 45.7256 23.9496L40.1035 14.118C39.131 12.4335 37.0801 11.6648 35.2507 12.1538C35.6402 10.4029 34.8759 8.52441 33.2423 7.58119L23.5 1.95656C22.1087 1.15313 20.4451 1.23544 19.1657 2.02678C18.4242 0.812437 17.0865 0 15.5625 0H4.21875C1.89253 0 0 1.89253 0 4.21875C0 5.19422 0 42.6583 0 43.7812C0 46.1075 1.89253 48 4.21875 48C5.31122 48 38.4345 48 43.7812 48C46.1075 48 48 46.1075 48 43.7812V32.4375C48 30.7085 46.954 29.2197 45.4619 28.569ZM16.9688 43.7812C16.9688 44.5567 16.3379 45.1875 15.5625 45.1875H4.21875C3.44334 45.1875 2.8125 44.5567 2.8125 43.7812C2.8125 43.1388 2.8125 31.6483 2.8125 31.0312H16.9688V43.7812ZM16.9688 28.2188H2.8125V16.875H16.9688V28.2188ZM16.9688 14.0625H2.8125V4.21875C2.8125 3.44334 3.44334 2.8125 4.21875 2.8125H15.5625C16.3379 2.8125 16.9688 3.44334 16.9688 4.21875V14.0625ZM19.7812 5.5845L20.1723 4.90716C20.5602 4.23544 21.4222 4.00444 22.0938 4.39228L31.836 10.0169C32.5077 10.4047 32.7386 11.2667 32.3498 11.9403L30.7249 14.7647C30.6842 14.8248 30.6476 14.8872 30.6169 14.9524L19.7812 33.787V5.5845ZM19.7812 39.427L32.9271 16.5767L35.6452 15.0074C36.3342 14.6096 37.2793 14.8512 37.665 15.5192L43.2871 25.3507C43.676 26.0242 43.4492 26.8877 42.7688 27.2805C41.7645 27.8618 20.7702 40.0161 19.7812 40.5886V39.427ZM45.1875 43.7812C45.1875 44.5567 44.5567 45.1875 43.7812 45.1875H19.5394C19.6893 44.7647 19.7734 44.3113 19.7798 43.8393L41.9034 31.0312H43.7812C44.5567 31.0312 45.1875 31.6621 45.1875 32.4375V43.7812Z"/>

    </g>
  </symbol>

  <symbol id="ic-painting-icon" viewBox="0 0 48 48">
    <g>
      <path d="M42.375 2.90625C40.2971 2.90625 38.4788 4.03866 37.5049 5.71875H1.40625C0.629625 5.71875 0 6.34837 0 7.125V43.6875C0 44.4641 0.629625 45.0938 1.40625 45.0938H42.375C45.4766 45.0938 48 42.5704 48 39.4688V8.53125C48 5.42963 45.4766 2.90625 42.375 2.90625ZM42.375 42.2812C41.8249 42.2812 3.32409 42.2812 2.8125 42.2812V8.53125H36.75V39.4688C36.75 40.2454 37.3796 40.875 38.1562 40.875C38.9329 40.875 39.5625 40.2454 39.5625 39.4688C39.5625 37.9179 40.8242 36.6562 42.375 36.6562C43.9258 36.6562 45.1875 37.9179 45.1875 39.4688C45.1875 41.0196 43.9258 42.2812 42.375 42.2812ZM45.1875 34.5986C44.3597 34.1187 43.3988 33.8438 42.375 33.8438C41.3512 33.8438 40.3903 34.1187 39.5625 34.5986V8.53125C39.5625 6.98044 40.8242 5.71875 42.375 5.71875C43.9258 5.71875 45.1875 6.98044 45.1875 8.53125V34.5986Z"/>
      <path d="M32.4375 11.3438H7.125C6.34837 11.3438 5.71875 11.9734 5.71875 12.75V38.0625C5.71875 38.8391 6.34837 39.4688 7.125 39.4688H21.1875C21.5605 39.4688 21.9181 39.3205 22.1818 39.0568C22.4456 38.7931 22.5938 38.4354 22.5938 38.0625V35.25C22.5938 33.4166 23.7693 31.8526 25.4062 31.2722V38.0625C25.4062 38.8391 26.0359 39.4688 26.8125 39.4688H32.4375C33.2141 39.4688 33.8438 38.8391 33.8438 38.0625V12.75C33.8438 11.9734 33.2141 11.3438 32.4375 11.3438ZM31.0312 36.6562H28.2188V29.625C28.2188 28.8484 27.5891 28.2188 26.8125 28.2188C22.9355 28.2188 19.7812 31.373 19.7812 35.25V36.6562H8.53125V28.2188H14.1562V32.4375C14.1562 33.2141 14.7859 33.8438 15.5625 33.8438C16.3391 33.8438 16.9688 33.2141 16.9688 32.4375V26.8125C16.9688 26.0359 16.3391 25.4062 15.5625 25.4062H8.53125V14.1562H16.9688V19.7812H12.75C11.9734 19.7812 11.3438 20.4109 11.3438 21.1875C11.3438 21.9641 11.9734 22.5938 12.75 22.5938H18.375H24C24.7766 22.5938 25.4062 21.9641 25.4062 21.1875C25.4062 20.4109 24.7766 19.7812 24 19.7812H19.7812V14.1562H31.0312V36.6562Z"/>

    </g>
  </symbol>

  <symbol id="slider-btn-prev" viewBox="0 0 24 24">
    <g>
      <path fill-rule="evenodd" clip-rule="evenodd" d="M9.20711 17.2071C8.81658 17.5976 8.18342 17.5976 7.79289 17.2071L3.29289 12.7071C2.90237 12.3166 2.90237 11.6834 3.29289 11.2929L7.79289 6.79289C8.18342 6.40237 8.81658 6.40237 9.20711 6.79289C9.59763 7.18342 9.59763 7.81658 9.20711 8.20711L6.41421 11L20 11C20.5523 11 21 11.4477 21 12C21 12.5523 20.5523 13 20 13L6.41421 13L9.20711 15.7929C9.59763 16.1834 9.59763 16.8166 9.20711 17.2071Z"/>
    </g>
  </symbol>

  <symbol id="slider-btn-next" viewBox="0 0 24 24">
    <g>
      <path fill-rule="evenodd" clip-rule="evenodd" d="M14.7929 6.79289C15.1834 6.40237 15.8166 6.40237 16.2071 6.79289L20.7071 11.2929C21.0976 11.6834 21.0976 12.3166 20.7071 12.7071L16.2071 17.2071C15.8166 17.5976 15.1834 17.5976 14.7929 17.2071C14.4024 16.8166 14.4024 16.1834 14.7929 15.7929L17.5858 13H4C3.44772 13 3 12.5523 3 12C3 11.4477 3.44772 11 4 11H17.5858L14.7929 8.20711C14.4024 7.81658 14.4024 7.18342 14.7929 6.79289Z"/>
    </g>
  </symbol>

  <symbol id="ic-whatsapp" viewBox="0 0 24 24">
    <g>
      <path d="M22 11.7424C22 17.1231 17.6047 21.4849 12.1818 21.4849C10.4602 21.4849 8.84289 21.0449 7.43578 20.2727L2 22L3.77222 16.7729C2.87822 15.3049 2.36333 13.5831 2.36333 11.7424C2.36333 6.36178 6.75911 2 12.1818 2C17.6051 2 22 6.36178 22 11.7424ZM12.1818 3.55156C7.62978 3.55156 3.92711 7.226 3.92711 11.7424C3.92711 13.5347 4.51133 15.1944 5.49956 16.5447L4.46822 19.5867L7.64044 18.5784C8.94378 19.4342 10.5051 19.9333 12.182 19.9333C16.7333 19.9333 20.4367 16.2593 20.4367 11.7429C20.4367 7.22644 16.7336 3.55156 12.1818 3.55156ZM17.1398 13.9862C17.0791 13.8869 16.9189 13.8269 16.6784 13.7076C16.4376 13.5882 15.254 13.0102 15.034 12.9309C14.8133 12.8513 14.6524 12.8113 14.4922 13.0502C14.332 13.2893 13.8707 13.8269 13.73 13.9862C13.5896 14.146 13.4493 14.166 13.2084 14.0464C12.968 13.9271 12.1927 13.6747 11.2733 12.8613C10.558 12.2284 10.0749 11.4471 9.93444 11.2078C9.79422 10.9689 9.91978 10.8398 10.04 10.7209C10.1484 10.6138 10.2809 10.442 10.4011 10.3027C10.5218 10.1631 10.5618 10.0638 10.6416 9.90422C10.7222 9.74489 10.682 9.60556 10.6216 9.48578C10.5616 9.36644 10.0798 8.19133 9.87933 7.71311C9.67889 7.23533 9.47867 7.31489 9.338 7.31489C9.19778 7.31489 9.03711 7.29489 8.87667 7.29489C8.71622 7.29489 8.45533 7.35467 8.23467 7.59356C8.01422 7.83267 7.39267 8.41044 7.39267 9.58533C7.39267 10.7604 8.25467 11.8958 8.37533 12.0549C8.49556 12.214 10.0398 14.7038 12.4864 15.66C14.9333 16.6158 14.9333 16.2969 15.3747 16.2569C15.8156 16.2171 16.7982 15.6793 16.9996 15.122C17.1996 14.5638 17.1996 14.0858 17.1398 13.9862Z"/>
    </g>
  </symbol>

  <symbol id="ic-messanger" viewBox="0 0 24 24">
    <g>
      <path d="M12 2C6.4775 2 2 6.145 2 11.2587C2 14.1725 3.45375 16.7712 5.72625 18.4688V22L9.13125 20.1313C10.04 20.3825 11.0025 20.5187 12 20.5187C17.5225 20.5187 22 16.3737 22 11.26C22 6.14625 17.5225 2 12 2ZM12.9937 14.4688L10.4475 11.7525L5.47875 14.4688L10.945 8.66625L13.5538 11.3825L18.46 8.66625L12.9937 14.4688Z"/>
    </g>
  </symbol>

  <symbol id="ic-facebook" viewBox="0 0 24 24">
    <g>
      <path d="M17.5628 1.00458L14.7856 1C11.6654 1 9.64903 3.12509 9.64903 6.41423V8.91055H6.85662C6.61532 8.91055 6.41992 9.1115 6.41992 9.35937V12.9763C6.41992 13.2241 6.61554 13.4249 6.85662 13.4249H9.64903V22.5514C9.64903 22.7993 9.84443 23 10.0857 23H13.729C13.9703 23 14.1657 22.799 14.1657 22.5514V13.4249H17.4307C17.672 13.4249 17.8674 13.2241 17.8674 12.9763L17.8688 9.35937C17.8688 9.24036 17.8226 9.12638 17.7409 9.04215C17.6591 8.95793 17.5477 8.91055 17.4318 8.91055H14.1657V6.79439C14.1657 5.77728 14.4017 5.26094 15.6915 5.26094L17.5624 5.26025C17.8035 5.26025 17.9989 5.0593 17.9989 4.81166V1.45317C17.9989 1.20576 17.8037 1.00504 17.5628 1.00458Z"/>
    </g>
  </symbol>

  <symbol id="ic-twitter" viewBox="0 0 24 24">
    <g>
      <path d="M22.5 5.77233C21.7271 6.10027 20.8978 6.32267 20.0264 6.42196C20.9161 5.91181 21.5972 5.10263 21.92 4.1414C21.0854 4.61383 20.1642 4.95688 19.1826 5.14285C18.3966 4.33994 17.2785 3.83984 16.0384 3.83984C13.6593 3.83984 11.7303 5.68691 11.7303 7.9637C11.7303 8.2866 11.7683 8.60199 11.8418 8.90357C8.26201 8.73141 5.08768 7.08917 2.96314 4.59372C2.59176 5.20189 2.38049 5.91053 2.38049 6.66697C2.38049 8.09814 3.14161 9.36093 4.2964 10.0997C3.5904 10.0771 2.92639 9.89116 2.34508 9.58205V9.63357C2.34508 11.6314 3.83056 13.2988 5.80024 13.6783C5.43936 13.7713 5.05882 13.8228 4.66514 13.8228C4.38696 13.8228 4.11794 13.7964 3.85417 13.7461C4.40267 15.3859 5.99315 16.5783 7.87756 16.611C6.40388 17.7167 4.54573 18.3739 2.52749 18.3739C2.17976 18.3739 1.83724 18.3537 1.5 18.3173C3.40671 19.4896 5.67036 20.1732 8.10327 20.1732C16.028 20.1732 20.3597 13.8881 20.3597 8.43741L20.3453 7.90341C21.1917 7.32537 21.9239 6.59912 22.5 5.77233Z"/>
    </g>
  </symbol>

  <symbol id="ic-youtube" viewBox="0 0 24 24">
    <g>
      <path fill-rule="evenodd" clip-rule="evenodd" d="M21.3903 4.11358C22.4182 4.39044 23.2288 5.20086 23.5055 6.22899C24.0197 8.10691 23.9999 12.0213 23.9999 12.0213C23.9999 12.0213 23.9999 15.9158 23.5057 17.7939C23.2288 18.8218 22.4184 19.6324 21.3903 19.9091C19.5122 20.4035 12 20.4035 12 20.4035C12 20.4035 4.50731 20.4035 2.60961 19.8895C1.58148 19.6127 0.771054 18.802 0.4942 17.7741C0 15.9158 0 12.0015 0 12.0015C0 12.0015 0 8.10691 0.4942 6.22899C0.770871 5.20104 1.60125 4.37066 2.60943 4.09399C4.48753 3.59961 11.9998 3.59961 11.9998 3.59961C11.9998 3.59961 19.5122 3.59961 21.3903 4.11358ZM15.8549 12.0016L9.60788 15.5996V8.40355L15.8549 12.0016Z"/>
    </g>
  </symbol>

  <symbol id="check-mark" viewBox="0 0 20 14">
    <g>
      <path fill-rule="evenodd" clip-rule="evenodd" d="M19.7071 0.292893C20.0976 0.683417 20.0976 1.31658 19.7071 1.70711L7.70711 13.7071C7.31658 14.0976 6.68342 14.0976 6.29289 13.7071L0.292892 7.70711C-0.0976315 7.31658 -0.0976315 6.68342 0.292892 6.29289C0.683418 5.90237 1.31658 5.90237 1.70711 6.29289L7 11.5858L18.2929 0.292893C18.6834 -0.0976311 19.3166 -0.0976311 19.7071 0.292893Z"/>
    </g>
  </symbol>
  <symbol id="ic-up-btn" viewBox="0 0 16 9">
    <g>
      <path fill-rule="evenodd" clip-rule="evenodd" d="M0.292893 8.70711C-0.0976311 8.31658 -0.0976311 7.68342 0.292893 7.29289L7.29289 0.292893C7.68342 -0.0976315 8.31658 -0.0976315 8.70711 0.292893L15.7071 7.29289C16.0976 7.68342 16.0976 8.31658 15.7071 8.70711C15.3166 9.09763 14.6834 9.09763 14.2929 8.70711L8 2.41421L1.70711 8.70711C1.31658 9.09763 0.683417 9.09763 0.292893 8.70711Z"/>
    </g>
  </symbol>
  <symbol id="ic-house" viewBox="0 0 48 48">
    <g>
      <path d="M28.9219 21.0938C26.9645 21.0938 25.2653 21.9855 24 23.6748C22.7344 21.9855 21.0352 21.0938 19.0781 21.0938C15.423 21.0938 12.75 24.0978 12.75 27.7841C12.75 32.5499 17.369 35.5437 23.0848 40.4425C23.3481 40.6681 23.6741 40.7813 24 40.7809C24.3259 40.7809 24.6519 40.6681 24.9152 40.4425C30.6379 35.5375 35.25 32.5481 35.25 27.7841C35.25 24.1007 32.5796 21.0938 28.9219 21.0938ZM24 37.5286C18.85 33.178 15.5625 30.832 15.5625 27.7841C15.5625 25.5732 17.0739 23.9063 19.0781 23.9063C21.6844 23.9063 22.6069 26.9652 22.6472 27.1036C22.8193 27.7075 23.3712 28.125 24 28.125C24.6306 28.125 25.184 27.705 25.3539 27.0978C25.363 27.0659 26.2782 23.9063 28.9219 23.9063C30.9258 23.9063 32.4375 25.5732 32.4375 27.7841C32.4375 30.8346 29.1456 33.1816 24 37.5286Z"/>
      <path d="M46.5934 45.188H42.3746V23.3447C42.3827 23.3505 42.3907 23.356 42.3988 23.3619C43.0203 23.8075 43.8842 23.6746 44.343 23.063L47.7188 18.5641C47.9451 18.262 48.0406 17.8819 47.9843 17.5087C47.9275 17.1355 47.7231 16.8008 47.417 16.58C47.1921 16.4178 24.9437 0.354281 24.8298 0.271883C24.3369 -0.0884687 23.6678 -0.0892012 23.1742 0.268953C23.1064 0.318026 18.8573 3.38578 14.0625 6.84794V4.21964C14.0625 3.44291 13.433 2.81339 12.6562 2.81339H7.03125C6.25452 2.81339 5.625 3.44291 5.625 4.21964V12.9399C2.74146 15.0218 0.651123 16.5309 0.583008 16.58C0.277222 16.8008 0.072876 17.1355 0.0161133 17.5087C-0.0406494 17.8819 0.0549317 18.2624 0.281616 18.5641L3.65698 23.063C4.11584 23.6746 4.97974 23.8075 5.6012 23.3619C5.60925 23.356 5.61694 23.3505 5.625 23.3447V45.1884H1.40625C0.629517 45.1884 0 45.8179 0 46.5947C0 47.371 0.629517 48.0009 1.40625 48.0009H46.5934C47.3701 48.0009 47.9996 47.371 47.9996 46.5947C47.9996 45.8179 47.3701 45.188 46.5934 45.188ZM8.4375 5.62589H11.25V8.87858C10.2975 9.56632 9.35083 10.2497 8.4375 10.9089V5.62589ZM5.08081 20.2743L3.39075 18.0218C17.5712 7.78361 22.3722 4.31705 24 3.14151C26.2672 4.77884 33.1714 9.76371 44.6093 18.0218L42.9196 20.2743C42.7793 20.174 24.98 7.4108 24.8225 7.29764C24.3311 6.94315 23.6678 6.94388 23.1771 7.29801C22.8582 7.52726 5.48254 19.9861 5.08081 20.2743ZM8.4375 21.3279C18.7676 13.9209 22.5864 11.1828 24 10.1687C25.9102 11.5387 31.1199 15.2745 39.5625 21.3279V45.1884H8.4375V21.3279Z"/>
    </g>
  </symbol>
  <symbol id="ic-chat" viewBox="0 0 48 48">
    <g>
      <path fill-rule="evenodd" clip-rule="evenodd" d="M36.5387 17.6113C36.3013 19.2559 35.7387 20.8189 34.905 22.2563C34.9675 22.6121 34.9996 22.9719 34.9996 23.3331C34.9996 24.5878 34.636 25.7886 33.9626 26.8796C33.6264 27.4242 33.5399 28.0623 33.5067 28.4839C33.4685 28.9671 33.4814 29.4958 33.5159 30.0037C33.5546 30.5735 33.6246 31.1717 33.7048 31.736C33.0543 31.5463 32.3492 31.3558 31.6763 31.204C31.1166 31.0777 30.5439 30.9701 30.0252 30.9165C29.5727 30.8698 28.9188 30.8336 28.3341 31.0226C27.0556 31.4359 25.6488 31.6665 24.1662 31.6665C22.403 31.6665 20.7837 31.3535 19.3643 30.8098C19.0229 30.8253 18.679 30.8331 18.3328 30.8331C16.3252 30.8331 14.3929 30.5691 12.585 30.0811C15.2132 33.1209 19.546 34.9998 24.1662 34.9998C25.9711 34.9998 27.7034 34.7227 29.2999 34.2135C29.3027 34.2136 29.3078 34.2135 29.3153 34.2133C29.3563 34.2125 29.4701 34.2103 29.6827 34.2322C30.017 34.2667 30.4469 34.3438 30.9428 34.4556C31.9301 34.6783 33.0395 35.007 33.9041 35.2814C35.7377 35.8635 37.5143 34.2634 37.1866 32.4027C37.0456 31.6019 36.899 30.6245 36.8415 29.7778C36.8126 29.3521 36.8094 29.0026 36.8297 28.7462C36.8381 28.6399 36.8488 28.5733 36.8556 28.5379C37.7933 26.9846 38.3329 25.216 38.3329 23.3331C38.3329 21.2105 37.6736 19.2723 36.5387 17.6113Z"/>
      <path fill-rule="evenodd" clip-rule="evenodd" d="M9.32773 9.49661C7.08113 11.2146 5.83266 13.4698 5.83266 15.833C5.83266 17.0114 6.13943 18.1463 6.71496 19.2017C6.93417 19.6037 6.99636 20.0183 7.0186 20.299C7.04285 20.6051 7.03076 20.9197 7.00414 21.2139C6.95085 21.8028 6.82372 22.4701 6.67124 23.1274C6.49287 23.8962 6.26431 24.7162 6.03239 25.486C6.91281 25.166 7.87508 24.8381 8.78733 24.5719C9.52461 24.3568 10.2692 24.1702 10.9318 24.0654C11.5027 23.9751 12.3311 23.8864 13.0443 24.1332C14.6448 24.6869 16.4353 24.9997 18.3327 24.9997C21.9113 24.9997 25.0895 23.8886 27.3376 22.1694C29.5842 20.4514 30.8327 18.1962 30.8327 15.833C30.8327 13.4698 29.5842 11.2146 27.3376 9.49661C25.0895 7.77745 21.9113 6.66634 18.3327 6.66634C14.754 6.66634 11.5759 7.77745 9.32773 9.49661ZM7.30289 6.84875C10.1821 4.64702 14.0872 3.33301 18.3327 3.33301C22.5781 3.33301 26.4832 4.64702 29.3624 6.84875C32.2431 9.05167 34.166 12.2131 34.166 15.833C34.166 19.4529 32.2431 22.6143 29.3624 24.8173C26.4832 27.019 22.5781 28.333 18.3327 28.333C16.0942 28.333 13.9561 27.9681 12.0148 27.3041C12.0128 27.3095 11.8554 27.2941 11.4524 27.3578C10.988 27.4313 10.3952 27.5751 9.72089 27.7719C8.37845 28.1635 6.87087 28.7176 5.72255 29.1645C3.73317 29.9387 1.70658 28.0281 2.37685 25.9929C2.7321 24.9142 3.15108 23.5511 3.42414 22.3741C3.5617 21.7812 3.65096 21.2827 3.68437 20.9135C3.69596 20.7853 3.69896 20.6919 3.69829 20.6288C2.93115 19.1629 2.49932 17.5417 2.49932 15.833C2.49932 12.2131 4.42216 9.05167 7.30289 6.84875ZM3.6928 20.5379C3.69296 20.5377 3.69377 20.5422 3.69475 20.5518C3.69313 20.5429 3.69264 20.5381 3.6928 20.5379Z"/>
    </g>
  </symbol>
  <symbol id="ic-gps" viewBox="0 0 16 17">
    <g>
      <path fill-rule="evenodd" clip-rule="evenodd" d="M8.00065 5.66732C7.26427 5.66732 6.66732 6.26427 6.66732 7.00065C6.66732 7.73703 7.26427 8.33398 8.00065 8.33398C8.73703 8.33398 9.33398 7.73703 9.33398 7.00065C9.33398 6.26427 8.73703 5.66732 8.00065 5.66732ZM5.33398 7.00065C5.33398 5.52789 6.52789 4.33398 8.00065 4.33398C9.47341 4.33398 10.6673 5.52789 10.6673 7.00065C10.6673 8.47341 9.47341 9.66732 8.00065 9.66732C6.52789 9.66732 5.33398 8.47341 5.33398 7.00065Z"/>
      <path fill-rule="evenodd" clip-rule="evenodd" d="M8.00065 2.66732C5.58762 2.66732 3.66732 4.55802 3.66732 6.84681C3.66732 8.71268 4.78866 10.5972 6.01441 12.0795C6.61615 12.8071 7.2196 13.4099 7.67296 13.8307C7.79424 13.9433 7.90446 14.0426 8.00065 14.1274C8.09684 14.0426 8.20706 13.9433 8.32834 13.8307C8.78171 13.4099 9.38515 12.8071 9.98689 12.0795C11.2126 10.5972 12.334 8.71268 12.334 6.84681C12.334 4.55802 10.4137 2.66732 8.00065 2.66732ZM8.00065 15.0007C7.5881 15.5243 7.58795 15.5242 7.58778 15.5241L7.58612 15.5228L7.58232 15.5198L7.56941 15.5095C7.55846 15.5007 7.54291 15.4881 7.52305 15.4719C7.48334 15.4395 7.42638 15.3925 7.35463 15.3316C7.2112 15.21 7.00834 15.033 6.76584 14.8079C6.28171 14.3585 5.63515 13.7131 4.98689 12.9292C3.71264 11.3883 2.33398 9.19585 2.33398 6.84681C2.33398 3.78267 4.89083 1.33398 8.00065 1.33398C11.1105 1.33398 13.6673 3.78267 13.6673 6.84681C13.6673 9.19585 12.2887 11.3883 11.0144 12.9292C10.3661 13.7131 9.7196 14.3585 9.23546 14.8079C8.99296 15.033 8.7901 15.21 8.64667 15.3316C8.57492 15.3925 8.51796 15.4395 8.47825 15.4719C8.45839 15.4881 8.44284 15.5007 8.4319 15.5095L8.41898 15.5198L8.41518 15.5228L8.41396 15.5237C8.41379 15.5239 8.4132 15.5243 8.00065 15.0007ZM8.00065 15.0007L8.4132 15.5243C8.17121 15.715 7.82977 15.7147 7.58778 15.5241L8.00065 15.0007Z"/>
    </g>
  </symbol>
  <symbol id="ic-clock" viewBox="0 0 16 17">
    <g>
      <path d="M8.66602 4.83268C8.66602 4.46449 8.36754 4.16602 7.99935 4.16602C7.63116 4.16602 7.33268 4.46449 7.33268 4.83268V8.49935C7.33268 8.67616 7.40292 8.84573 7.52794 8.97075L9.52794 10.9708C9.78829 11.2311 10.2104 11.2311 10.4708 10.9708C10.7311 10.7104 10.7311 10.2883 10.4708 10.0279L8.66602 8.22321V4.83268Z"/>
      <path fill-rule="evenodd" clip-rule="evenodd" d="M7.99935 1.16602C3.94926 1.16602 0.666016 4.44926 0.666016 8.49935C0.666016 12.5494 3.94926 15.8327 7.99935 15.8327C12.0494 15.8327 15.3327 12.5494 15.3327 8.49935C15.3327 4.44926 12.0494 1.16602 7.99935 1.16602ZM1.99935 8.49935C1.99935 5.18564 4.68564 2.49935 7.99935 2.49935C11.3131 2.49935 13.9993 5.18564 13.9993 8.49935C13.9993 11.8131 11.3131 14.4993 7.99935 14.4993C4.68564 14.4993 1.99935 11.8131 1.99935 8.49935Z"/>
    </g>
  </symbol>
</svg>
